# xmcd
#
# Track frame offsets:
# 150
# 11016
# 26162
# 44336
# 56829
# 70457
# 87413
# 101373
# 116878
# 131929
# 145629
# 161415
#
# Disc length: 2336 seconds
#
#
# Revision: 0
# Processed by: cddbd v1.5.1PL2 Copyright (c) Steve Scherf et al.
# Submitted via: FreeRIP 2.944 
#
DISCID=ac091e0c
DTITLE=festival MIK 98 - Melodije Istre I Kvarnera -cd 2
DYEAR=1998
DGENRE=Country
TTITLE0=Lipa mladosti moja
TTITLE1=Bella fuimana
TTITLE2=Daz
TTITLE3=Nase materi
TTITLE4=Ostatni kraj mene
TTITLE5=Hodi z manun
TTITLE6=Balun
TTITLE7=Girasone
TTITLE8=Raj
TTITLE9=Vrnula si mi smih va oko
TTITLE10=Letnja noc
TTITLE11=Moja Anka
EXTD=
EXTT0=
EXTT1=
EXTT2=
EXTT3=
EXTT4=
EXTT5=
EXTT6=
EXTT7=
EXTT8=
EXTT9=
EXTT10=
EXTT11=
PLAYORDER=
